[h264 @ 0x55d307041d00] Reinit context to 640x352, pix_fmt: yuv420p
Input #0, mov,mp4,m4a,3gp,3g2,mj2, from '/var/www/html/project/media/video/original/IMG_4871.MOV':
  Metadata:
    major_brand     : qt  
    minor_version   : 0
    compatible_brands: qt  
    creation_time   : 2022-06-16T18:17:38.000000Z
  Duration: 00:00:28.84, start: 0.000000, bitrate: 2241 kb/s
    Stream #0:0(und): Audio: aac (LC) (mp4a / 0x6134706D), 48000 Hz, stereo, fltp, 256 kb/s (default)
    Metadata:
      creation_time   : 2022-06-16T18:17:38.000000Z
      handler_name    : Core Media Audio
    Stream #0:1(und): Video: h264 (Baseline), 1 reference frame (avc1 / 0x31637661), yuv420p(tv, unknown/bt470bg/unknown, progressive, left), 640x352, 1980 kb/s, 29.99 fps, 30 tbr, 90k tbn, 180k tbc (default)
    Metadata:
      creation_time   : 2022-06-16T18:17:38.000000Z
      handler_name    : Core Media Video
      encoder         : 'avc1'
Input #1, png_pipe, from '/var/www/html/project/static/images/templates/logo.png':
  Duration: N/A, bitrate: N/A
    Stream #1:0: Video: png, 1 reference frame, rgba(pc), 1920x1080 [SAR 2835:2835 DAR 16:9], 25 tbr, 25 tbn, 25 tbc
[h264 @ 0x55d30708fac0] Reinit context to 1280x720, pix_fmt: yuv420p
Input #2, mov,mp4,m4a,3gp,3g2,mj2, from '/var/www/html/project/static/images/templates/Codino.mp4':
  Metadata:
    major_brand     : mp42
    minor_version   : 1
    compatible_brands: isommp41mp42
    creation_time   : 2021-07-11T07:02:58.000000Z
  Duration: 00:00:02.00, start: 0.000000, bitrate: 1007 kb/s
    Stream #2:0(ita): Audio: aac (LC) (mp4a / 0x6134706D), 44100 Hz, stereo, fltp, 102 kb/s (default)
    Metadata:
      creation_time   : 2021-07-11T07:02:58.000000Z
      handler_name    : Core Media Audio
    Stream #2:1(und): Video: h264 (High), 1 reference frame (avc1 / 0x31637661), yuv420p(tv, bt709, progressive, left), 1280x720 [SAR 1:1 DAR 16:9], 813 kb/s, 25 fps, 25 tbr, 25k tbn, 50k tbc (default)
    Metadata:
      creation_time   : 2021-07-11T07:02:58.000000Z
      handler_name    : Core Media Video
[Parsed_scale_0 @ 0x55d307046440] w:1280 h:720 flags:'bilinear' interl:0
[Parsed_scale_2 @ 0x55d30709b580] w:1280 h:720 flags:'bilinear' interl:0
[Parsed_scale_4 @ 0x55d30709a240] w:1280 h:720 flags:'bilinear' interl:0
Stream mapping:
  Stream #0:0 (aac) -> concat:in0:a0
  Stream #0:1 (h264) -> scale
  Stream #1:0 (png) -> scale
  Stream #2:0 (aac) -> concat:in1:a0
  Stream #2:1 (h264) -> scale
  concat:out:v0 -> Stream #0:0 (libx264)
  concat:out:a0 -> Stream #0:1 (aac)
Press [q] to stop, [?] for help
[h264 @ 0x55d3071fbbc0] Reinit context to 640x352, pix_fmt: yuv420p
[h264 @ 0x55d30746a380] Reinit context to 1280x720, pix_fmt: yuv420p
[Parsed_scale_0 @ 0x55d307ffa080] w:1280 h:720 flags:'bilinear' interl:0
[Parsed_scale_2 @ 0x55d308002b80] w:1280 h:720 flags:'bilinear' interl:0
[Parsed_scale_4 @ 0x55d308003d80] w:1280 h:720 flags:'bilinear' interl:0
[graph 0 input from stream 0:1 @ 0x55d3080084c0] w:640 h:352 pixfmt:yuv420p tb:1/90000 fr:30/1 sar:0/1 sws_param:flags=2
[graph 0 input from stream 1:0 @ 0x55d308009540] w:1920 h:1080 pixfmt:rgba tb:1/25 fr:25/1 sar:2835/2835 sws_param:flags=2
[graph 0 input from stream 2:1 @ 0x55d30800a5c0] w:1280 h:720 pixfmt:yuv420p tb:1/25000 fr:25/1 sar:1/1 sws_param:flags=2
[graph_0_in_0_0 @ 0x55d30800b580] tb:1/48000 samplefmt:fltp samplerate:48000 chlayout:0x3
[graph_0_in_2_0 @ 0x55d30800c6c0] tb:1/44100 samplefmt:fltp samplerate:44100 chlayout:0x3
[Parsed_concat_7 @ 0x55d308006540] auto-inserting filter 'auto_resampler_0' between the filter 'graph_0_in_2_0' and the filter 'Parsed_concat_7'
[Parsed_scale_0 @ 0x55d307ffa080] w:640 h:352 fmt:yuv420p sar:0/1 -> w:1280 h:720 fmt:yuv420p sar:0/1 flags:0x2
[Parsed_setsar_1 @ 0x55d308002300] w:1280 h:720 sar:0/1 dar:16/9 -> sar:1/1 dar:16/9
[Parsed_scale_2 @ 0x55d308002b80] w:1920 h:1080 fmt:rgba sar:2835/2835 -> w:1280 h:720 fmt:yuva420p sar:1/1 flags:0x2
[Parsed_setsar_3 @ 0x55d308003040] w:1280 h:720 sar:1/1 dar:16/9 -> sar:1/1 dar:16/9
[Parsed_overlay_6 @ 0x55d308005400] main w:1280 h:720 fmt:yuv420p overlay w:1280 h:720 fmt:yuva420p
[Parsed_overlay_6 @ 0x55d308005400] [framesync @ 0x55d308005528] Selected 1/90000 time base
[Parsed_overlay_6 @ 0x55d308005400] [framesync @ 0x55d308005528] Sync level 2
[Parsed_scale_4 @ 0x55d308003d80] w:1280 h:720 fmt:yuv420p sar:1/1 -> w:1280 h:720 fmt:yuv420p sar:1/1 flags:0x2
[Parsed_setsar_5 @ 0x55d308004840] w:1280 h:720 sar:1/1 dar:16/9 -> sar:1/1 dar:16/9
[auto_resampler_0 @ 0x55d3080131c0] ch:2 chl:stereo fmt:fltp r:44100Hz -> ch:2 chl:stereo fmt:fltp r:48000Hz
[libx264 @ 0x55d30708e0c0] using SAR=1/1
[libx264 @ 0x55d30708e0c0] using cpu capabilities: MMX2 SSE2Fast SSSE3 SSE4.2 AVX FMA3 BMI2 AVX2
[libx264 @ 0x55d30708e0c0] profile High, level 3.1
[libx264 @ 0x55d30708e0c0] 264 - core 155 r2917 0a84d98 - H.264/MPEG-4 AVC codec - Copyleft 2003-2018 - http://www.videolan.org/x264.html - options: cabac=1 ref=1 deblock=1:0:0 analyse=0x3:0x113 me=hex subme=2 psy=1 psy_rd=1.00:0.00 mixed_ref=0 me_range=16 chroma_me=1 trellis=0 8x8dct=1 cqm=0 deadzone=21,11 fast_pskip=1 chroma_qp_offset=0 threads=22 lookahead_threads=5 sliced_threads=0 nr=0 decimate=1 interlaced=0 bluray_compat=0 constrained_intra=0 bframes=3 b_pyramid=2 b_adapt=1 b_bias=0 direct=1 weightb=1 open_gop=0 weightp=1 keyint=250 keyint_min=25 scenecut=40 intra_refresh=0 rc_lookahead=10 rc=crf mbtree=1 crf=18.0 qcomp=0.60 qpmin=0 qpmax=69 qpstep=4 ip_ratio=1.40 aq=1:1.00
Output #0, mp4, to '/var/www/html/project/media/video/watermarks/IMG_4871.mp4':
  Metadata:
    major_brand     : qt  
    minor_version   : 0
    compatible_brands: qt  
    encoder         : Lavf58.29.100
    Stream #0:0: Video: h264 (libx264), 1 reference frame (avc1 / 0x31637661), yuv420p(progressive), 1280x720 [SAR 1:1 DAR 16:9], q=-1--1, 30 fps, 15360 tbn, 30 tbc (default)
    Metadata:
      encoder         : Lavc58.54.100 libx264
    Side data:
      cpb: bitrate max/min/avg: 0/0/0 buffer size: 0 vbv_delay: -1
    Stream #0:1: Audio: aac (LC) (mp4a / 0x6134706D), 48000 Hz, stereo, fltp, delay 1024, 128 kb/s (default)
    Metadata:
      encoder         : Lavc58.54.100 aac
[Parsed_concat_7 @ 0x55d308006540] EOF on in0:a0, 1 streams left in segment.
[Parsed_overlay_6 @ 0x55d308005400] [framesync @ 0x55d308005528] Sync level 0
[Parsed_concat_7 @ 0x55d308006540] EOF on in0:v0, 0 streams left in segment.
[Parsed_concat_7 @ 0x55d308006540] Segment finished at pts=28842666
[Parsed_concat_7 @ 0x55d308006540] EOF on in1:v0, 1 streams left in segment.
[Parsed_concat_7 @ 0x55d308006540] EOF on in1:a0, 0 streams left in segment.
[Parsed_concat_7 @ 0x55d308006540] Segment finished at pts=30861353
No more output streams to write to, finishing.
frame=  915 fps=212 q=-1.0 Lsize=   10297kB time=00:00:30.86 bitrate=2732.5kbits/s speed=7.16x    
[AVIOContext @ 0x55d30703e440] Statistics: 0 seeks, 9 writeouts
video:9786kB audio:478kB subtitle:0kB other streams:0kB global headers:0kB muxing overhead: 0.324774%
Input file #0 (/var/www/html/project/media/video/original/IMG_4871.MOV):
  Input stream #0:0 (audio): 1352 packets read (922983 bytes); 1352 frames decoded (1384448 samples); 
  Input stream #0:1 (video): 865 packets read (7140957 bytes); 865 frames decoded; 
  Total: 2217 packets (8063940 bytes) demuxed
Input file #1 (/var/www/html/project/static/images/templates/logo.png):
  Input stream #1:0 (video): 1 packets read (111578 bytes); 1 frames decoded; 
  Total: 1 packets (111578 bytes) demuxed
Input file #2 (/var/www/html/project/static/images/templates/Codino.mp4):
  Input stream #2:0 (audio): 89 packets read (26579 bytes); 87 frames decoded (89024 samples); 
  Input stream #2:1 (video): 50 packets read (203365 bytes); 50 frames decoded; 
  Total: 139 packets (229944 bytes) demuxed
Output file #0 (/var/www/html/project/media/video/watermarks/IMG_4871.mp4):
  Output stream #0:0 (video): 915 frames encoded; 915 packets muxed (10020482 bytes); 
  Output stream #0:1 (audio): 1447 frames encoded (1481345 samples); 1448 packets muxed (489283 bytes); 
  Total: 2363 packets (10509765 bytes) muxed
[AVIOContext @ 0x55d30709ab40] Statistics: 2 seeks, 44 writeouts
[libx264 @ 0x55d30708e0c0] frame I:5     Avg QP:12.32  size: 45787
[libx264 @ 0x55d30708e0c0] frame P:362   Avg QP:16.17  size: 17995
[libx264 @ 0x55d30708e0c0] frame B:548   Avg QP:18.08  size:  5979
[libx264 @ 0x55d30708e0c0] consecutive B-frames: 16.9%  4.8% 14.4% 63.8%
[libx264 @ 0x55d30708e0c0] mb I  I16..4: 40.8% 27.8% 31.4%
[libx264 @ 0x55d30708e0c0] mb P  I16..4: 13.0% 12.8%  1.3%  P16..4: 30.0% 14.7%  7.8%  0.0%  0.0%    skip:20.4%
[libx264 @ 0x55d30708e0c0] mb B  I16..4:  3.1%  1.6%  0.0%  B16..8: 24.5%  7.1%  0.3%  direct:15.6%  skip:47.8%  L0:47.0% L1:43.7% BI: 9.2%
[libx264 @ 0x55d30708e0c0] 8x8 transform intra:44.0% inter:37.8%
[libx264 @ 0x55d30708e0c0] coded y,uvDC,uvAC intra: 34.0% 43.9% 6.1% inter: 13.8% 20.8% 0.1%
[libx264 @ 0x55d30708e0c0] i16 v,h,dc,p: 41% 32% 17% 10%
[libx264 @ 0x55d30708e0c0] i8 v,h,dc,ddl,ddr,vr,hd,vl,hu: 17% 34% 28%  4%  3%  2%  4%  2%  5%
[libx264 @ 0x55d30708e0c0] i4 v,h,dc,ddl,ddr,vr,hd,vl,hu: 24% 26% 19%  6%  6%  4%  6%  4%  5%
[libx264 @ 0x55d30708e0c0] i8c dc,h,v,p: 55% 24% 18%  3%
[libx264 @ 0x55d30708e0c0] Weighted P-Frames: Y:6.4% UV:0.6%
[libx264 @ 0x55d30708e0c0] kb/s:2599.73
[aac @ 0x55d3070be900] Qavg: 1762.272
[AVIOContext @ 0x55d307047380] Statistics: 55845866 bytes read, 1696 seeks
[AVIOContext @ 0x55d3070ac4c0] Statistics: 111578 bytes read, 0 seeks
[AVIOContext @ 0x55d307045000] Statistics: 1530915 bytes read, 42 seeks
